<?xml version="1.0" standalone="no"?>
<!DOCTYPE svg PUBLIC "-//W3C//DTD SVG 20010904//EN"
 "http://www.w3.org/TR/2001/REC-SVG-20010904/DTD/svg10.dtd">
<svg version="1.0" xmlns="http://www.w3.org/2000/svg"
 width="1080.000000pt" height="1350.000000pt" viewBox="0 0 1080.000000 1350.000000"
 preserveAspectRatio="xMidYMid meet">

<g transform="translate(0.000000,1350.000000) scale(0.100000,-0.100000)"
fill="#000000" stroke="none">
<path d="M7737 11020 c-3 -19 -9 -125 -12 -235 -13 -439 -50 -698 -126 -869
-11 -26 -27 -50 -34 -53 -31 -11 -171 85 -370 255 -124 106 -165 137 -165 125
0 -4 10 -19 23 -33 137 -149 367 -462 367 -498 0 -26 -191 -93 -335 -117 -55
-9 -264 -27 -465 -39 -355 -21 -435 -36 -198 -36 160 0 576 -36 706 -61 92
-17 259 -76 285 -99 25 -22 -160 -285 -340 -482 -57 -63 -55 -80 5 -28 91 80
207 176 267 221 58 44 209 139 220 139 4 0 20 -29 36 -65 36 -80 74 -230 88
-350 14 -113 41 -531 42 -650 1 -144 15 -147 23 -5 36 674 41 722 92 898 14
48 37 106 50 130 l25 43 47 -27 c118 -67 230 -153 410 -312 40 -36 76 -62 79
-58 3 3 -21 36 -53 73 -164 186 -308 384 -328 450 -6 19 0 26 41 46 112 56
231 83 468 106 133 13 469 31 583 31 48 0 82 4 82 10 0 6 -17 10 -38 10 -114
0 -642 32 -733 45 -200 27 -409 92 -409 126 0 44 160 267 329 457 35 40 61 75
58 79 -4 3 -41 -26 -84 -64 -185 -164 -404 -323 -448 -323 -20 0 -68 111 -94
215 -31 124 -48 272 -61 525 -21 396 -26 457 -33 420z"/>
<path d="M4345 10155 c-85 -19 -137 -41 -367 -156 -327 -163 -408 -209 -638
-366 -459 -312 -873 -768 -1162 -1278 -456 -805 -618 -1741 -457 -2645 119
-675 419 -1316 867 -1855 98 -118 395 -413 497 -494 44 -34 89 -70 100 -79
116 -96 342 -245 520 -343 80 -43 147 -79 149 -79 2 0 50 -22 107 -49 135 -64
206 -93 362 -147 111 -39 173 -58 347 -105 323 -86 876 -130 1255 -100 268 22
529 67 755 132 877 251 1598 759 2155 1519 164 222 353 569 462 845 230 583
315 1197 247 1799 -24 214 -46 336 -61 336 -11 0 -12 -19 -6 -97 13 -156 9
-696 -6 -808 -38 -299 -90 -533 -176 -790 -159 -472 -368 -845 -684 -1220 -89
-104 -278 -297 -370 -375 -35 -30 -69 -60 -75 -65 -63 -58 -317 -237 -447
-315 -110 -65 -399 -210 -509 -255 -242 -98 -566 -190 -815 -230 -252 -40
-360 -49 -620 -49 -391 0 -667 39 -1065 151 -92 26 -309 102 -425 151 -113 46
-379 180 -427 213 -14 11 -29 19 -33 19 -3 0 -26 14 -50 30 -24 17 -46 30 -49
30 -21 0 -285 194 -416 306 -127 108 -109 91 -215 194 -76 74 -119 120 -226
240 -175 198 -371 493 -507 766 -344 688 -470 1454 -361 2199 32 225 102 502
175 695 19 52 39 106 44 120 17 52 80 190 139 305 103 202 120 231 251 425
141 207 440 540 620 690 41 34 84 70 95 79 294 245 764 504 1138 626 53 18
100 35 104 39 11 11 -160 4 -222 -9z"/>
<path d="M7902 7273 c-6 -16 -22 -59 -35 -98 -14 -38 -41 -113 -60 -165 -19
-52 -74 -203 -122 -335 -48 -132 -96 -259 -107 -281 -22 -47 -54 -80 -83 -86
-17 -3 -21 -12 -23 -56 l-3 -52 160 0 161 0 0 60 0 59 -54 3 -53 3 36 95 37
95 169 0 169 0 25 -70 c30 -85 25 -122 -19 -138 -28 -10 -30 -15 -30 -59 l0
-48 203 0 202 0 0 55 0 55 -45 0 -46 0 -11 54 c-6 30 -55 164 -108 298 -53
133 -121 307 -151 384 -29 78 -64 167 -78 198 l-25 56 -49 0 c-45 0 -51 -3
-60 -27z m32 -287 c8 -42 54 -186 90 -280 14 -37 26 -70 26 -72 0 -2 -58 -4
-129 -4 l-130 0 48 138 c27 75 54 163 61 195 7 31 16 57 20 57 4 0 11 -15 14
-34z"/>
<path d="M2970 7215 l0 -55 58 0 57 0 -3 -397 c-4 -450 -3 -448 -73 -459 l-40
-7 3 -46 3 -46 403 -3 402 -2 0 108 c0 60 3 137 6 171 l7 61 -52 -1 c-50 -2
-51 -3 -51 -34 0 -69 -42 -139 -100 -170 -16 -8 -74 -14 -158 -17 l-132 -3 0
192 0 193 25 6 c23 6 75 0 118 -12 23 -7 47 -55 47 -94 0 -29 1 -30 50 -30
l50 0 0 185 0 185 -55 0 -55 0 0 -65 0 -65 -90 0 -90 0 0 143 c0 185 10 209
90 220 145 19 229 -25 252 -134 l12 -59 46 0 c42 0 46 2 44 23 -1 12 -3 77 -3
145 l-1 122 -385 0 -385 0 0 -55z"/>
<path d="M3940 7215 l0 -55 54 0 53 0 -4 -322 c-5 -435 -9 -485 -39 -514 -13
-13 -35 -24 -49 -24 -23 0 -25 -3 -25 -50 l0 -50 170 0 171 0 -3 57 -3 57 -52
-3 -53 -2 1 358 c0 209 4 350 9 338 5 -11 21 -63 36 -115 24 -85 62 -183 224
-580 l46 -115 74 0 74 0 22 60 c113 306 277 743 283 753 10 17 19 -132 28
-425 7 -256 4 -268 -68 -279 l-40 -7 2 -48 3 -49 213 0 213 0 0 55 0 55 -57 0
-58 0 -2 143 c-2 78 -7 254 -12 391 -5 137 -6 259 -1 271 13 35 39 55 71 55
28 0 29 1 29 50 l0 50 -175 0 c-132 0 -177 -3 -179 -12 -8 -25 -227 -613 -236
-633 -5 -11 -21 -57 -36 -102 -25 -76 -44 -105 -44 -68 0 19 -99 283 -248 660
l-59 150 -167 3 -166 2 0 -55z"/>
<path d="M5420 7215 l0 -55 58 0 57 0 -2 -367 c-2 -203 -5 -386 -8 -409 -7
-51 -36 -84 -75 -84 -29 0 -30 -1 -30 -50 l0 -50 220 0 220 0 0 55 0 55 -57 0
-58 0 3 205 c1 113 3 297 5 410 2 226 4 231 68 244 32 6 34 9 37 54 l3 47
-220 0 -221 0 0 -55z"/>
<path d="M6020 7215 l0 -55 55 0 55 0 -1 -337 c0 -408 -6 -478 -38 -504 -13
-11 -34 -19 -47 -19 -22 0 -24 -4 -24 -50 l0 -50 405 0 405 0 2 130 c4 250 5
235 -17 234 -74 -3 -70 1 -83 -71 -15 -79 -42 -124 -92 -152 -29 -16 -57 -20
-165 -22 l-130 -3 -3 388 c-2 341 0 392 14 422 11 22 26 36 43 40 50 11 51 12
51 59 l0 45 -215 0 -215 0 0 -55z"/>
<path d="M6947 7263 c-4 -3 -7 -28 -7 -55 l0 -48 58 0 57 0 -3 -387 c-1 -214
-5 -398 -7 -411 -8 -34 -41 -62 -75 -62 -29 0 -30 -1 -30 -50 l0 -50 220 0
220 0 0 58 0 57 -55 -3 -55 -4 0 391 c0 433 3 455 57 466 52 12 53 13 53 60
l0 45 -213 0 c-118 0 -217 -3 -220 -7z"/>
<path d="M3727 5887 c-31 -61 -66 -127 -77 -145 l-20 -33 -25 19 c-33 26 -58
19 -100 -31 -80 -93 -72 -251 12 -221 19 6 37 31 67 91 54 106 60 110 36 27
-25 -88 -26 -146 -2 -167 25 -23 49 -23 27 0 -13 13 -16 27 -11 61 6 46 68
247 91 297 41 86 84 199 79 206 -11 19 -21 5 -77 -104z m-133 -214 c-10 -73
-79 -193 -103 -179 -44 27 35 226 90 226 18 0 20 -4 13 -47z"/>
<path d="M6521 5890 c-23 -61 -62 -170 -87 -244 -70 -214 -58 -245 41 -99 104
155 128 177 106 96 -18 -64 -14 -137 9 -158 18 -17 21 -17 45 -1 28 18 85 92
85 110 0 6 -23 -13 -51 -42 -29 -28 -56 -52 -60 -52 -14 0 -10 72 7 129 26 89
-4 132 -53 79 -33 -35 -103 -131 -103 -141 0 -4 -4 -6 -8 -3 -8 5 37 145 106
333 24 64 28 84 18 92 -9 8 -22 -16 -55 -99z"/>
<path d="M3953 5705 c-45 -55 -61 -94 -62 -156 -1 -39 3 -49 24 -63 32 -21 84
-20 115 1 45 32 116 120 105 131 -3 4 -27 -17 -52 -46 -52 -60 -88 -82 -133
-82 -30 0 -30 1 -30 53 0 54 0 54 32 54 63 0 114 96 72 137 -23 23 -29 21 -71
-29z m67 -6 c0 -5 -10 -25 -22 -44 -23 -34 -58 -53 -58 -32 0 15 39 80 53 89
13 8 27 1 27 -13z"/>
<path d="M4341 5725 c-40 -34 -75 -124 -68 -176 8 -58 30 -79 85 -79 40 0 49
5 91 48 68 68 123 140 119 153 -2 6 -37 -26 -78 -71 -76 -84 -112 -110 -153
-110 -59 0 -36 153 31 213 23 21 44 15 40 -10 -2 -9 3 -18 10 -20 7 -3 12 5
12 20 0 48 -49 65 -89 32z"/>
<path d="M4753 5728 c-11 -13 -37 -58 -58 -102 -41 -87 -42 -136 -4 -157 40
-21 84 4 132 76 21 30 40 44 84 60 31 11 58 26 61 32 3 10 -7 9 -38 -2 -62
-22 -67 -20 -75 27 -7 42 -43 88 -68 88 -7 0 -23 -10 -34 -22z m77 -70 c0 -32
-3 -38 -21 -38 -51 0 -76 44 -46 82 33 42 67 19 67 -44z m-17 -82 c-31 -52
-94 -103 -113 -91 -16 10 -11 67 10 112 l19 42 45 -25 c31 -17 44 -30 39 -38z"/>
<path d="M6942 5727 c-12 -13 -22 -29 -22 -35 0 -7 -12 -31 -27 -54 -22 -32
-28 -53 -28 -96 0 -51 3 -57 28 -71 24 -14 30 -14 54 -1 14 8 42 38 60 65 28
41 43 52 81 64 26 7 53 18 60 23 25 21 11 27 -29 13 -60 -22 -66 -20 -72 27
-4 29 -14 50 -32 65 -33 29 -46 29 -73 0z m72 -23 c3 -9 6 -31 6 -50 0 -29 -3
-34 -23 -34 -29 0 -56 28 -52 53 7 42 56 64 69 31z m-5 -111 c2 -2 -8 -21 -22
-43 -27 -40 -80 -76 -97 -65 -16 10 -11 53 11 105 l21 49 42 -22 c22 -12 43
-23 45 -24z"/>
<path d="M7927 5730 c-36 -28 -87 -135 -87 -181 0 -75 89 -105 157 -53 36 27
93 99 93 117 0 6 -29 -17 -64 -51 -62 -59 -96 -77 -133 -70 -15 3 -18 13 -18
53 0 43 3 50 20 48 31 -2 73 25 91 58 31 61 -11 117 -59 79z m43 -36 c0 -28
-54 -89 -70 -79 -15 9 -13 19 20 63 35 48 50 53 50 16z"/>
<path d="M7330 5715 c-15 -39 -70 -225 -70 -236 0 -16 32 -10 47 9 7 9 27 45
44 79 37 75 108 159 109 129 0 -11 -7 -46 -16 -78 -14 -48 -14 -61 -4 -71 10
-9 14 -9 17 1 8 22 94 132 104 132 13 0 11 -26 -6 -90 -22 -81 -20 -98 12
-106 24 -6 34 1 90 60 35 36 63 73 63 81 0 9 -32 -17 -71 -57 -42 -43 -73 -68
-76 -61 -2 7 3 37 11 67 23 78 21 101 -10 114 -23 11 -29 9 -55 -17 l-29 -29
0 38 c0 35 -12 50 -40 50 -15 0 -54 -43 -89 -98 -18 -29 -34 -52 -36 -52 -1 0
7 31 18 70 16 53 18 73 9 82 -8 8 -14 4 -22 -17z"/>
<path d="M5760 5719 c0 -20 -108 -176 -141 -203 -36 -31 -59 -33 -59 -7 0 30
41 154 56 172 18 20 18 25 -1 33 -16 6 -36 -25 -67 -104 -34 -86 -17 -140 43
-140 23 0 37 10 71 54 23 30 44 54 45 52 2 -1 -10 -40 -26 -87 -56 -168 -119
-259 -177 -259 -14 0 -22 -4 -19 -10 10 -17 56 -11 91 10 18 12 46 43 63 69
44 72 158 401 146 421 -8 14 -25 13 -25 -1z"/>
</g>
</svg>
